# xmcd
#
# Track frame offsets:
# 150
# 17566
# 47135
# 73021
# 110194
# 159158
# 188383
# 224243
#
# Disc length: 3597 seconds
#
#
# Revision: 0
# Processed by: cddbd v1.5.2PL0 Copyright (c) Steve Scherf et al.
# Submitted via: FreeRIP 2.96 
#
DISCID=6e0e0b08
DTITLE=Lee Brown - The Italian tour live
DYEAR=1997
DGENRE=Blues
TTITLE0=All my time
TTITLE1=My eyes
TTITLE2=Just the two of us
TTITLE3=Summertime
TTITLE4=Aint no sunshine
TTITLE5=Give your love to me
TTITLE6=Without you
TTITLE7=The butt dance
EXTD=
EXTT0=
EXTT1=
EXTT2=
EXTT3=
EXTT4=
EXTT5=
EXTT6=
EXTT7=
PLAYORDER=
